<svg version="1.2" xmlns="http://www.w3.org/2000/svg" viewBox="0 0 163 126" width="163" height="126">
	<title>New Project</title>
	<style>
		.s0 { fill: #ffffff }
	</style>
	<path id="UF" fill-rule="evenodd" class="s0" d="m25.3 37.9q0.3-0.8-0.3-0.8-1.2-0.3-1.9-0.3-0.3-0.1-1.1-0.9h-1.8l-0.9 0.9q-0.3-0.3-0.6-0.4-0.1-0.2-0.5-0.5h-1.8q-0.2-0.3-0.5-0.4-0.2-0.2-0.3-0.5h-2.9l-1.3 1.4q0 0 0 0.4-0.7 0-0.8 0.3-0.2 0.3-0.2 0.6 0 0.3-0.1 0.6-0.3 0.5-0.6 0.5-0.3 0-0.6 0-0.7-0.4-0.5-1.5l1-0.9v-1.4h1.1q0.3 0 0.4-0.3 0.1 0 0.1-0.3l-0.3-0.3q-1.2-0.2-1.3 0.9h-0.7q-0.2-0.3-0.5-0.6-0.4-0.4-0.7-0.7 0.2-0.7 0.9-0.5 0.5 0 0.8-0.4v-2l-1.8-1.8v-2q1-1 1-1.3 0.1-0.3-0.9-1.3-0.2-1.9 0-3.9l0.8-0.8q-0.2 0-0.1-0.3-0.4-0.2-0.5-0.3 0-0.1-0.3-0.4v-4.5q0-0.3 0.1-0.5 0.4-0.1 0.5 0 0.3 0.8 1.2 0.8 1.1 0 1.3 0.9 0.6 0.3 1.1 0.1 0.5-0.3 0.4-1v-0.5q-0.5-0.6-1.1-0.5-0.5 0.2-1.1 0-0.6-0.5-1.1-0.8h-0.8q-0.2-0.3-0.4-0.3-0.1-0.2-0.1-0.5v-6q0.3-0.7 1.5-1.6 1.1-0.2 1.5 0.7 0.1 0.2 0.5 0.2h10.9q0.6 0.3 0.4 0.7 0 0.3 0 0.6 0.8 0.6 1 0.6 0.2 0 1-0.6l-0.9-0.9q1-0.3 3-0.3 2-0.1 4.2 0.2 0.2 3.4 0.2 14.8 0.1 11.3 0 31.9l-0.3 0.3q-0.4-0.1-0.7-0.2-0.1-0.2-0.4-0.5h-0.4q-0.5-0.3-0.8 0.3-0.2 0.2 0.3 0.6l0.9 0.9q0.6 0 1.1 0.2 0 0.1 0.1 0.1l0.2 0.1v4.5q0 0.8-1.1 0.8-0.3-0.1-0.6-0.3-0.1-0.3-0.5-0.6-0.7-0.3-1.6-0.1-0.7-0.1-1.5 0.1-0.5 0.3-0.3 0.9h-1.4q-0.6 0.6-0.4 1.1 0 0.7 0.7 0.7 1 0 1.1-0.6v-1.2h1.3q0.8 0.5 0.5 1.2-0.1 0.6 0.3 1.3 0.1 0.2 1.2 0.2 0.4-0.4 0.8-0.9 0.4-0.4 1.2-0.7 0.3 0 0.3 0.3v15.7q-0.4 0.3-0.5 0.6-0.2 0.2-0.5 0.5l1 0.8v18.6q0.2 0.4 0.4 0.4 0.6 0.3 1.3 0.1 0.8-0.1 1.5 0.2 0.5 0.2 1 0.7 0.4 0.5 0.8 0.9 0.7-0.4 1.1-0.9 0.5-0.5 0.9-0.9 0.7 0.6 0.5 1.4-0.4 0.5 0.2 1.3 0.7 0.2 2.1 0.2 0.3 0.3 0.4 0.7 0 0.3 0.1 0.6-0.6 0.6-1.1 0.9 1 0.9 1.5 1.3h1.8q0.3-0.1 1-0.7 0.6 0 0.8-0.2 0.6-0.2 0.5-0.6 0-0.4 0.3-0.9 0.3-0.6 0.7-0.2v1.3q0.8 0.8 1.5 0.6 0.8-0.3 1.5-0.2 0.2 0 0.7-0.4-0.4-0.4-0.8-0.7-0.4-0.5-0.9-1 0-0.2 0.4-0.5l1-1q0.4 0.5 0.8 1 0.5 0.3 0.8 0.7 0.5 0.3 0.9 0.3 0.4-0.1 0.9-0.1 0.7 0 0.7 1v1.4q-0.7 0.7-1.3 1.3-0.6 0.6-1.3 1.2-0.1 1.4-1.1 2l0.6 0.6q0.6 0 0.9-0.2 0.3-0.1 0.3-0.3 0.1-0.3 0.3-0.3 0.6-0.3 0.9-0.1 0.2 0 0.6 0.4-0.6 0.6-0.7 0.9v2.8q0.7 0.9 0.7 1.3 0.1 0.2-0.5 1h-2.8q-0.2-0.4-0.4-1 0.4-0.8 1-1.3 0.6-0.4 0.9-1.1-0.3-0.3-0.6-0.5-0.3-0.3-0.8-0.6-0.1-0.2-1-0.1-0.3-0.5-0.8-0.9-0.3-0.6-0.5-0.9h-1.4q-0.3 0.3-0.8 0.5-0.2 0.4-0.5 0.6-0.1 1.1 0.1 1.4 0.2 0.2 0.9 0.1h0.9q0.1 0 0.1 0.2 0.2 0 0.3 0 0.3 0.3 0.4 0.6 0 0.3 0 0.6-0.5 0.4-0.8 1 0.1 0.4 0.8 1l-0.8 0.7q-0.3 0.6-0.2 1.2 0.2 0.5 0.2 0.9 0 0.2 0 0.2 0.1 0 0.1 0.1 0 0.2 0.2 0.2h4.2q0 0.4 0 0.4-0.9 0.9-1.4 1.2-0.3 0.1-0.8 0.1-0.7-0.5-1.1-0.9h-0.8q-0.1 0.2-0.3 0.2 0 0-0.1 0.2 0 0.9-0.3 2-0.3 0.4-0.3 0.4-3.9 0.1-8 0.1-3.9 0-7.8 0-0.7-0.7-1-0.9-0.3 0.1-0.5 0.3 0.1 0.2-0.3 0.3-0.1 0.2-0.2 0.2-1.7 0.1-3.3 0.1-1.5 0-3 0-1.3-1.2-2.3-2.1-0.9-1-1.8-2.1-0.5-0.4-0.1-0.8 0.3-0.7 0.8-1.1 0.6-0.7 1.2-1.3h0.3q1 0.8 1.7 1.7 0.4 0 0.7 0 0.4 0 0.6-0.4-0.4-0.5-0.8-0.9-0.4-0.5-0.8-1 0.4-0.4 0.9-0.9 0.5-0.6 0.9-1-0.4-0.6-1-0.5-0.7 0.2-1.3 0l-0.9-0.8q-0.2-0.2-0.7 0-0.5 0-0.6 0.2-0.3 0.5-0.5 1.1 0.1 0.4-0.4 0.9-0.3 0.3-0.3 0.9 0.2 0.5 0 0.7 0 0.4-0.1 0.5-0.2 0-0.4 0.3l-0.8-0.9q-0.7 0.6-1 0.8-0.2-0.3-0.7-0.7-0.3-0.2-0.6-0.6-0.2-1-0.3-1.1-0.2-0.2-0.9-0.4l-5.3-5.2q0.4-0.1 0.3-0.3 0.2-0.1 0.5-0.5-0.3-0.2-0.5-0.2-0.1-0.2-0.3-0.5-0.3-1.5-0.9-1.9-0.5-0.7 0.2-1.3 0.1-0.2 0.6-0.7v-0.9q-0.5-0.5-0.9-0.9-0.4-0.6-0.9-1.1 0.3-0.1 0.3-0.2 0.2-0.2 0.4-0.5 0.3-0.8 0.2-1.5 0-0.8 0-1.7v-3.1-3.1q0.6-0.7 1-0.5 0.6 0.1 1.3 0 0.4-0.1 0.4-0.6-0.3-0.3-0.4-0.3 0 0-0.5 0h-1.3q-0.2-0.3-0.4-0.5-0.1-0.1-0.1-0.2v-5.1q0-0.2 0.5-0.7 0.2 0.4 0.5 0.5 0.4 0.1 0.6 0.5 0.4-0.2 1.2-0.5v-1q-0.7-1-1.8-0.5-0.8 0.3-1.6-0.1l-0.3-0.4v-1.9l1.4-1.3q0.7 0.7 1.3 1.5 0.8 0.6 1.3 1 0.6 0.3 0.9 0.5 0.4 0 0.6 0.1v2.1q0.4 0.3 0.5 0.5 0.2 0.1 0.4 0.4 0.6 0.5 1.3 0.5 0.7-0.4 0.7-1.1v-1.3q0.6-0.6 0.8-1-0.4-0.2-0.7-0.5-0.1-0.4-0.1-0.6 0-0.6-0.3-0.9-0.3-0.4-0.6-0.8v-1.7q-0.3-0.9-1.2-0.5-0.5 0-0.8 0.4-0.1 0.3-0.6 0.5-0.7 0-1.2 0.4-0.5 0.3-0.7 0.3 0-0.1-0.1-0.9-0.2-0.7-1-0.7-1 0-1-0.8v-13.6q0.8-0.8 0.8-0.9-0.1-0.3-0.7-1-0.2-0.8-0.3-1.7 0.2-0.9 0.2-2 0 0 0.5-0.4 0.4 0.1 1 0.7 0.6-0.6 0.5-1.1-0.2-0.5 0-1.1-0.1-0.4 0.3-0.4 0 0 0.2 0 0 0 0.3 0.4l1 0.9q-0.1 1 0.1 1.3 0.3 0.2 1.1 0 0.7 0 0.5-0.6 0-0.6 0.2-0.9 0.3-0.4 1.1-0.3h-0.2q-0.5 0 0 0.5 0.2 0.4 1.2 0.4 0.2-0.2 0.3-0.2 0.1-0.1 0.3-0.2 0.3-0.3 0.4-0.5 0.2-0.3 0.5-0.6-0.3-0.3-0.8-0.3-0.3 0-0.5 0-0.7 0.6-1.2 0.9-0.2-0.3-0.3-0.4-0.1-0.4-0.4-0.4-0.2-0.1-0.7-0.1-0.5 0-1.2-0.1-0.5-0.5-0.7-0.6-0.5-0.3-1.1-0.3-0.7-0.8-1.4-1.2-0.4-0.5-1-1.1v-2.4q0.3 0 0.6 0.2 0.5 0 0.7-0.2 0.1 0 0.5-0.4l-0.9-0.9v-0.5h2.2q0.5 0.3 1.1 0.9h5.4q0.6 0 0.6-0.9 0.5 0 0.4 0 0.3 0.3 0.8 0.8 0.5 0.2 0.7 0.6-0.2 0.4-0.7 0.7-0.3 0.2-0.1 0.8-0.4 0-0.8 0-0.3-0.2-0.6 0-0.3 0.1-0.3 0.1-0.1 0.3-0.1 0.3-0.1 0.3 0.3 0.3 1 0.4 1.5-0.7 0.4-0.3 0.7 0.2 0.3 0.4 0.1 0.8 0 0.4 0.5 0.7h0.9q0.8-0.5 0.3-1.6-0.4-0.4-0.8-0.6 0.4-0.3 0.5-0.4 0.1-0.3 0.5-0.6v-0.8q0.1-0.1 0.1-0.1 0-0.2 0.2-0.4 0.4-0.3 0.8-0.1 0.5 0.1 0.9 0 0.4-0.2 0.3-0.1 0.2-0.2 0.5-0.3-0.8-0.8-1.5-0.5-0.8 0.2-1.5 0-0.8-0.3-1.2-0.7-0.3-0.6-0.9-1.1-0.3 0.2-0.9 0.8-0.3-0.3-0.6-0.5-0.2-0.1-0.4-0.5l-1 1q-0.3-0.8-1-0.8-0.8 0-1.2-0.6l0.9-0.9v-0.9q0.8-0.8 1.5-0.4 0.8 0.1 1.5 0 0.3 0 0.5 0.1 0.2 0.3 0.4 0.6 0.2 0.2 0.6 0.2 0.6 0 1.2-0.6l0.3-0.3h0.8q0.1 0 0.1 0.1 0.2 0 0.3 0 0.1 0.3 0.3 0.5 0.1 0 0.3 0.3 0.5-0.4 1-0.9h1.4q-0.3 0.4 0.3 0.7 0.3 0 0.3 0.2 0.1 0 0.5 0 0.4 0 0.7-0.5 0-0.4-0.5-0.4-0.3-0.2-0.7 0-0.3 0-0.6 0zm9.3 20.4h-0.9q-0.5 0.3-0.8-0.3-0.2-0.3 0.3-0.6l0.5-0.5-0.9-0.9v-15.9l0.9-0.9q-0.3-0.3-0.5-0.4-0.1-0.3-0.4-0.5v-1.9q0.9-1.1 0.9-1.4 0-0.3-0.8-1.2-0.1-0.1-0.1-0.4v-8q0.1-0.6 0.9-1-0.6-0.6-0.9-1.1v-2.7q0.3-0.3 0.4-0.4 0.2-0.3 0.5-0.6v-15.8q-0.5-0.4-0.8-0.4h-5.2q-0.6-0.6-1.1-0.9h-1.7l-1 0.9h-18.7q-0.3-0.3-0.6-0.6-0.3-0.5-0.7-0.8 0.8-0.9 1.2-1.3 0.1 0 0.1 0 0.1-0.2 0.3-0.2h5.2q0.6 0.6 1.1 0.9l0.9-0.9h18.6q0.3 0.3 0.4 0.5 0.3 0.1 0.7 0.4h1.7q0.6-0.6 1.1-0.9 0.2 0.5 0.2 0.9 0.1 0.5 0.1 2.3 0 1.6 0 5.2 0 3.6 0 10.2v19.1 18.6q-0.2 0.4-0.6 0.7-0.4 0.2-0.3 0.8zm-0.5 65.2h2.5q0 0.7-0.7 1.1-0.4 0.2-0.7 0.7h-14.1q-0.9-1-2-2.1-1-1.2-2.2-2.4v-0.6l-0.3-0.3q-0.6 0-0.9-0.1-0.3 0-0.3-0.2-6.8-6.4-13.2-13.2-0.1-0.3-0.1-0.3v-1-8.8q0.1-0.5 0.5-0.9 0.7-0.4 0-1.5l-0.1-0.1q-0.3-0.3-0.4-0.6 0-4.5-0.2-7.6 0-3.2 0-5.3 0-2.2 0-3.6 0.2-1.5 0.3-2.4 0.7-0.3 2.2 0 0.3 0.2 0.3 0.8v12.6q-0.1 0.2-0.4 0.4-0.2 0.1-0.4 0.5 0.7 0.7 0.8 1v11.1q-0.9 1.1-0.8 1.5-0.1 0.3 0.8 1.2v1.7q0.2 0.4 0.4 0.4 1 1.2 2 2.3 1.1 0.9 2.1 2 0.2 0.4 0.4 0.8 0.1 0.5 0.3 0.7h1q0.5 0.4 0.5 1.3 0 0.7 1 0.7 0.6 0 0.7 0.5l-0.9 0.9q0.6 0.6 1.1 1.1 0.6 0.5 1.3 1.1 0.2 0 0.3 0.2 0.2 0 0.5 0 1.5 1.3 2.8 2.8 1.4 1.4 2.7 2.7h12.2q0.4 0.3 1 0.9zm-21.4-20.6q-0.8 0-1.3 0-0.7 0-1.4 0.2-0.6 0-0.3 0.6l0.3 0.3h0.9l0.9 0.9h3.8l0.3-0.3q0.4-0.9-0.3-1.5l-1 0.9h-1q-0.3-0.3-0.5-0.4-0.1-0.3-0.4-0.7zm0-34.3q0 0-0.3 0.3-0.1 0.2-0.2 0.4 0.1 0.9-0.6 1.1 0 0-0.9 0-0.3 0.4-1.1 1.3 0.4 0.8 1 0.6 0.6-0.1 1.3-0.2 0.3-0.4 0.7-0.6 0.2-0.3 0.5-0.7 0.2-0.2 0-0.4 0-0.3 0.2-0.6 0.1-0.3 0.4-0.5 0.3-0.1 0.2-0.4-0.1-0.4-0.6-0.3-0.3 0-0.6 0zm10.2 2.7q-0.4 0.4-0.8 1h-1q-0.7 0.5-1.2 1.3-0.4 0.4-0.2 0.9 0.1 0.1 0.2 0.2 0.2 0 0.3 0.4 0.6-0.6 1-0.9h1.9q0.3-0.8 0.3-1 0.1-0.1 0.1-0.7 0-0.8-0.6-1.2zm-1-15.8h2l0.2-0.1q0 0 0.3-0.3-0.6-0.6-1.2-1.2-0.5-0.6-1.2-1.2-0.6 0.6-0.6 1.3 0.1 0.7 0.5 1.5zm-10.5 33.1v0.8q1 1.4 2.3 2.4 0.2-0.2 0.2-0.4 0.2-0.3 0.3-0.6-0.3-0.7-0.9-1.2-0.6-0.4-1.1-0.9-0.2-0.8-0.6-0.5 0 0-0.2 0.4zm13-17.9v1q0.7 1.1 1.5 0.4 0.4-0.5 0.9-0.5 0.4-0.2 1.1-0.4 0.5-0.4-0.2-0.6-0.8-0.2-1.5-0.2-0.7 0-1.8 0.3zm-3.9-38.8q-0.2-0.2-0.1-0.4 0-0.3-0.3-0.3h-2.7q-0.7 0.3-0.3 0.7 0.8 0.8 1.1 1.3h1.1q0.3-0.5 1.2-1.3zm-7.8 52.4l-1.3 1.4q0.2 0.1 0.2 0.5 0.2 0.1 0.3 0.1h3.7q0.1 0 0.1-0.1 0-0.2 0.2-0.2 0.1-0.3-0.3-0.6h-1.9zm4.9-35.1q0.7 0.6 1.5 0.8 0.7 0 1 0.7 1.2 0.3 1.5-0.4 0-0.3 0-0.6 0-0.3-0.3-0.6-1.7-0.3-3.7 0.1zm1.8 34.2h-1.1l-0.9 0.9q-0.5 0.5-0.3 0.7 0.3 0.4 0.9 0.4 0.3-0.2 0.6 0 0.5 0 0.8 0 0.4-0.8 0.4-0.9 0-0.4-0.4-1.1zm0.4 18.1v-0.9q-0.3-0.2-0.3-0.2-1.2-0.5-2.3 0 0.1 0-0.3 0.2l0.7 0.7 0.3 0.2q0.8 0.8 1.9 0zm6.4-58.6q0.4 0.3 0.7 0.6 0.2 0.3 0.7 0.6 0.9 0.6 1.5-0.3-0.3-0.3-0.6-0.6-0.3-0.3-0.6-0.6-1-0.4-1.7 0.3zm-14.8 22.4q-0.4-0.3-0.7-0.6-0.4-0.5-0.8-0.6-0.3 0.3-0.7 0.6-0.4 0.3-0.6 0.6 0.7 0.3 0.8 0.4 0.2 0 0.8 0 0.9 0 1.2-0.4zm13-38v-0.7q0-0.6-0.2-0.8-0.4-0.3-0.6 0.3-0.3 0.5-0.8 0.5-0.5-0.2-0.9 0.1-0.4 0.5 0 0.6 1 0.5 2.5 0zm-9.7 18.9q-0.3 0-0.6 0-0.1-0.1-0.3 0-0.4 0-0.4 0.6 0.2 0.3 0.4 0.3h1.8q0.5-0.7 0.5-0.9 0-0.3-0.5-1-0.6 0.6-0.9 1zm7.8 18.2v-0.9q-0.8-0.6-0.9-0.6-0.2 0-0.9 0.4v0.9q0.7 0.6 0.9 0.6 0.1 0 0.9-0.4zm9.4 49.3q0.1-0.6-0.1-0.9 0 0-0.4-0.4l-1.4 1.3v0.9q0.3 0.3 0.6 0.3 0.5-0.3 1.3-1.2zm-19.6-13.9v0.9q0.8 0.4 0.9 0.4 0.3 0 1-0.4v-0.9q-0.7-0.6-1-0.6-0.1 0-0.9 0.6zm11.3-10.2l1.3 1.3h0.9q0.3-0.3 0.3-0.6-0.3-0.4-1.2-1.3h-0.9q-0.1 0.1-0.3 0.3 0 0.1-0.1 0.3zm-2.4-29.4h0.4q0.6 0 0.8-0.3 0.1-0.3-0.3-0.6-0.4-0.3-0.5-0.5-0.2-0.3-0.4-0.6-1 1.1 0 2zm-7.5 4.6q-1 0.9 0 1.8 0.2 0 0.2-0.3 0.2-0.1 0.2-0.1 0.1 0 0.3-0.2 0.2-0.3 0.5-0.4 0.2-0.2 0-0.5-0.2-0.4-0.7-0.3-0.2 0-0.5 0zm2.8-46.6h1.8q0.5-0.2 0.4-0.6-0.1-0.2-0.3-0.2 0.1 0-0.1-0.1h-1.8q-0.6 0.3-0.3 0.6 0 0 0.3 0.3zm13.4 64v-0.3q-0.3-0.4-1-0.3-0.4 0-0.5 0.3v0.3q0.2 0.3 0.7 0.3 0.6 0 0.8-0.3zm-2.5-4.5h0.5q0-0.1 0.2-0.1l0.1-0.2v-0.9l-0.1-0.1q-0.2 0-0.2-0.2-0.3-0.1-0.3-0.1-0.4 0.3-0.4 0.9 0 0.4 0.2 0.7zm-10.6 17.6v-0.3q-0.3-0.4-0.3-0.4-0.4-0.1-0.9 0-0.3 0-0.3 0.4v0.3q0.2 0.3 0.6 0.3 0.6 0 0.9-0.3zm9.8 0.1h0.3l0.3-0.3q0.1-0.3 0.1-0.9l-0.3-0.3q-0.1-0.1-0.4-0.1-0.3 0.3-0.4 0.8 0.1 0.5 0.4 0.8zm-2.3-1v-0.5q0 0-0.3-0.3h-0.9l-0.3 0.3q-0.2 0.3-0.1 0.3 0.3 0.4 0.7 0.4 0.6 0 0.9-0.2zm-9.1-1.3q-1.1-0.9-2 0 0.9 1.3 2 0zm3.7-37.1q0.9 0.9 1.8 0-0.9-1.1-1.8 0zm5.4-4.5v-0.3q-0.3-0.3-0.9-0.3-0.4 0-0.7 0.3-0.1 0.1 0.1 0.3 0.3 0.3 0.8 0.3 0.4 0 0.7-0.3zm1.1 14.2h-0.5q-0.6 0.3-0.3 0.6 0 0.3 0.3 0.3 0 0 0.5 0 1 0 0.7-0.6-0.3-0.6-0.7-0.3zm10 53.7v-0.3q-0.3-0.3-0.9-0.3-0.5 0-0.6 0.3v0.3q0.3 0.3 0.8 0.3 0.5 0 0.7-0.3zm-9.3-85.6v-0.3q0-0.3-0.3-0.3-0.5-0.2-0.9 0 0 0-0.3 0.3v0.3q0.2 0.3 0.6 0.3 0.6 0 0.9-0.3zm54.3-21.8v-1.2q0.6-0.3 0.8 0.3 0.4 1.7 0 3.2-0.2 0-0.3 0.1 0 0-0.2 0l-0.8-0.7q-1.3 1-2.3 2.4 0 0.7 0.1 0.9 0.1 0.1 1.2 0.3l0.9-0.9h0.9q0.1 0 0.5 0.3 0.1 0.1 0.1 0.3v3.3q-0.4 0.9-1.2 1.3-0.6 0.5-1.2 1.2h-4.7q-0.2 0.3-0.4 0.5-0.2 0.1-0.4 0.4-0.7-0.4-1.1-0.9-0.3-0.4-0.7-0.9-0.5 0.5-1.1 0.9-0.4 0.5-0.9 1.1h-0.9q-0.4-0.5-0.3-0.8l1.7-1.6v-0.9q0.9-1 1.5-1.4l2.6 2.7h4q0.1-0.3 0.1-0.6 0.2-0.3 0.3-0.7-1-0.9-2.1-1.8-0.9-1.1-1.8-2 0-1.1 0.5-1.3 0.4-0.2 0.4-0.6-0.2-0.5-0.9-0.5 0 0-0.6 0-0.5 0.5-0.9 1.1-0.3 0.4-0.8 0.9h-2.8q-0.7 0.6-0.2 0.7 0.4 0.1 0.8 0.3 0.5 0 1 0.3-0.4 0.3-0.7 0.5-0.3 0-0.6 0.1-0.7 0.3-1.2 0.9-0.3 0.4-1 0.8-0.2-0.2-1-0.8-0.1 0.2-0.4 0.8 0 0.3 0 0.7 0.2 0.3 0 0.6 0 0.6-0.9 0.6-0.6 0-0.7 0.3 0 0.2-0.2 1.1-0.6 0.6-0.9 1v2.7q0.3 0.5 0.8 0.5 0.4 0 0.7 0.1 0.5 0.3 0.3 0.9h-1.3q-0.5 0.7-0.5 0.9 0 0.2 0.5 0.9h1.3q0 0.5 0 0.5l-0.9 0.9q0.5 0.6 1.1 0.4 0.7 0 0.7 0.9 0.2 0.2 0.1 0.3 0 0.2 0.2 0.5 0.1 0.3 0.8 0.3 0 0.5-0.2 0.9 0 0.6 0.5 0.7 0.1 0.2 0.5-0.3 0.2-0.1 0.4-0.4h1.8q0.2-0.2 0.4-0.3 0.3-0.3 0.6-0.5 0.9-0.6 1.5 0.3v1.4h-1.3q-0.8 0.3-0.7 0.9 0.4 0.6-0.4 0.9-0.6-0.6-1.1-0.9-0.4 0.1-1 0-0.6-0.2-1 0.4v0.5 1.3q0.1 0.6 0.5 0.5 0.9-0.8 1.3-0.8 0.3 0 1.3 0.9l0.9-0.9q0.6 0.5 1 0.9 0.5 0.5 1 0.9l1.3-1.3v-1.8q-0.3-0.6-0.8-0.5-0.4 0-0.7-0.3-0.4-0.3-0.3-0.7 0.4 0.3 0.8-0.3 0.3-0.3 0.1-0.8 0-0.4 0.6-0.7h0.9q0.8 0.9 1.6 1.6 0.4 0.2 0.5-0.1 0.3-0.3 0.6-0.5 0.4 0.5 0.4 0.5v1.6q0.5 0.6 1.4 0.6 0.3-0.3 0.4-0.4 0.4-0.3 0.7-0.6 0 0.1 0.1 0.3 0.2 0 0.2 0.1 0 0.6 0 1.2 0.1 0.5 0.1 1.1v6q-0.2 0.6-0.7 0.9-0.5 0.2 0 1.3 0 0 0.7 0.8v0.9q-0.3 0.2-0.4 0.6-0.2 0.1-0.5 0.4v0.9l0.9 0.9v41.1q-0.5 0.2-0.9 0.3-0.4 0.1-0.7 0.3l-0.2 0.3q0.3 0.3 0.3 0.3 1.2 0.3 1.4 0.5 0.1 0.1 0.1 0.7v1.5 6.9q-0.2 0.2-0.1 0.4-0.8 0.8-1.4 1.4-0.6 0.5-1.4 1.2v1l-2.2 2.3q-0.9 0-1 0.1-0.2 0.2-0.5 1.1 0 0.1-0.1 0.3l-8.6 8.6q-0.1 0.1-0.3 0.1-0.3 0.2-1 0.2-2.9 0-5.8 0-2.8 0-5.8-0.2-0.3 0-0.4-0.1 0-0.2-0.3-0.4l1.3-1.3q0.3 0.3 0.5 0.5 0.3 0.1 0.5 0.4l1-0.9q0.4 0 0.7 0 0.3 0 0.6-0.3 0.1-0.3 0.3-0.3 0.2 0 0.3-0.2 0.9 0.8 1.2 1 0.3 0 1.1-0.6l-1.4-1.4q-0.3-0.1-0.6 0-0.3 0-0.6-0.3-0.7-0.9 0.3-1.7 0 0 0.8 0 0.4-0.2 1-0.9h0.9q0.5 0.5 0.4 0.9 0.2 0.7 0.2 0.8 0.1 0 0.9 0.2h0.4q0.7-0.7 1.2-1.1 0.7-0.6 1-1.4-0.2 0-0.2-0.1l-0.1-0.1h-0.9q-0.6 0.6-1.1 0.8-0.1-0.2-0.3-0.7-0.2-0.4-0.3-0.9-0.4-0.3-1.1-0.1-0.6 0.1-1-0.2-0.3-0.3-0.6-0.4-0.3-0.2-0.6-0.5-0.3 0.1-1.2 0.5v1.5q0.3 0.4-0.3 0.7-0.3 0.3-0.6-0.3-0.3-0.5-0.9-1.1v-0.4-0.4q0.9-0.4 0.9-1.3 0-1 0.8-1.3 0.3-0.1 0.3-0.3 0.1-0.2 0.4-0.3l0.9 0.9h1.8l0.8-0.7q0.3-0.2 0.8-0.2 0.5-0.1 0.7-0.6-0.2 0-0.2-0.1l-0.2-0.2q-0.7 0-1.3 0-0.6 0-1.3-0.2-0.2 0-0.7-0.4 0.8-0.7 1-1.1 0.2-0.4-0.2-0.7-0.3-0.3-0.8-0.4-0.2-0.5 0.3-0.8 0.3-0.3 0.8-0.1 0.5 0 0.7-0.6v-0.9q-0.2-0.4-0.7-0.6-0.3-0.4-0.6-0.6-0.1-0.3-0.6-0.2-0.3 0-0.6 0.2-0.1 0.3-0.3 0.4-0.2 0-0.3 0.3-0.8-0.3-0.4-1.4 0.9-0.8 1.2-1.3 0.4 0.3 1 0.9l0.9-0.9h2.4v0.7q0 1.1 0.9 1.1h0.9q-0.3 0.4 0.3 0.8 0.5 0.2 0.9 0.2 0.6-0.1 1.2-0.1 0.1 0 0.2-0.1l0.1-0.2q-0.3-0.6-0.5-0.6h-2.2v-0.9q0-0.9-1.1-0.9h-0.7v-2.5q-0.4-0.2-0.9-0.2-0.3-0.1-0.7-0.3-0.3-0.3-0.2-0.3 0-0.1 0.3-0.5 0.3-0.1 0.6 0 0.3 0 0.6-0.2 0.4-0.5 0.2-1.3-0.3-0.4-0.7-0.2-0.3 0-0.5-0.2-0.7 0.4-1.1 1h-1.8l-1.3-1.3v-3.8q0.1-0.2 0.2-0.4 0.2-0.3 0.5-0.6l-0.9-0.9v-4.6q0.6-0.6 0.9-1.1-0.3-0.2-0.5-0.3 0.1-0.1-0.1-0.3-0.3-0.6-0.3-0.9v-4q1-0.5 1.1-2 0.9-0.4 1.8-0.3 1 0.2 1.9 0h3.1l1.4-1.3q-0.6-0.8-1.5-0.5-0.7 0.2-1.5 0-0.5 0-0.7 0.6-0.3 0.6-1.1 0.3-0.7-0.3-1.2-0.7-0.3-0.6-0.9-1.1-0.3 0.1-0.6 0.3-0.2 0.2-0.4 0.5l-1.2-1.2q0.5-1 0.7-1.1v-2.7q0.3-0.3 0.5-0.4 0.1-0.3 0.4-0.6-0.3-0.3-0.4-0.5-0.2-0.3-0.5-0.6v-6.3q-0.3-0.3-0.5-0.4-0.1-0.3-0.2-0.7 0.2-0.2 0.2-0.4 0.2-0.1 0.5-0.3 0.3-0.8 0-1.3-0.1-0.6 0.2-1.2-0.3-0.8-0.8-1.1-0.5-0.4-0.1-1.2 0.1-0.3 0.7-0.9v-1.9q-0.3-0.2-0.5-0.3-0.1-0.3-0.4-0.6 0.3-0.3 0.4-0.5 0.2-0.1 0.5-0.4v-40.1q0.3-0.3 0.5-0.4 0.2-0.3 0.5-0.6v-0.9q0.4-0.2 0.7-0.2 0.4-0.1 1.6-0.1 1.2-0.2 3.5-0.2 2.3 0 6.7 0 0.6 0.6 1 0.9h1q0.2-0.3 0.4-0.4 0.2-0.2 0.4-0.5h6q0.8 0 1 0.3 0 0.3-0.5 0.8-0.3 0.4-0.5 0.9-0.1 0.3 0.7 0.9l0.4 0.4-0.9 0.9v1.5q-0.6 0-1.2 0-0.4-0.1-1 0-0.2 0-0.6 0.5 0.9 0.9 1.3 1.2 1.1 0.2 1.5-0.5zm-14 111q1.9-1.8 3.7-3.6 1.7-1.8 3.6-3.8 0.3-0.2 0.1-0.7 0-0.4 0.6-0.8h0.9q0.3-0.2 0.6-0.6 0.3-0.4 0.6-0.7 0.1-0.9 0.3-1 0.2-0.2 0.9-0.5h0.5l4.9-4.9v-1.1l0.9-0.9v-11.3l-0.9-0.8v-1.8q0.3-0.5 0.9-1.1-0.9-1-0.9-1.4 0-0.2 0.8-1.1 0.1-0.2 0.1-0.5v-9.7q0-0.3-0.1-0.5l-0.7-0.6v-3.7q0.2-0.4 0.4-0.5 0.1-0.3 0.4-0.6l-0.9-0.9v-0.9q0.6-0.6 0.9-1-0.6-0.6-0.8-1v-5.5q0.2-0.3 0.7-0.7 0.3-3 0.3-7.7 0-4.8-0.3-8.5-0.2-0.2-0.3-0.3-0.1-0.2-0.4-0.3 0.2-0.4 0.4-0.6 0.1-0.3 0.4-0.6 0-1.1 0.2-1.7 0-0.3 0.5-0.6 0.2 0 1.2 0.5v66.1q-0.7 0.8-1.5 1.5-0.5 0.6-1.5 0.9-0.2 0-0.4 0.1l-8.6 8.6q-0.2 1.2-0.4 1.4-0.1 0.1-1.2 0.3l-4.2 4.2q-0.3 0.3-0.4 0.3-0.2-0.2-0.8-0.8-0.2-0.1-0.3-0.3 0-0.1-0.2-0.3zm-1.9-13.9l0.9 0.9v2.8q0 0.2 0.2 0.2l0.1 0.1q0.6 0.3 0.6-0.5 0.2-0.4 0-0.8 0-0.5 0-0.9 0.3-0.2 0.4-0.3 0.2-0.2 0.5-0.2 0.7 0 0.9-0.4-0.1-0.3-0.3-0.5-0.2-0.3-0.4-0.6 0.3-0.2 0.3-0.3 0.1-0.1 0.4-0.3 0-0.2 0-0.2 0.1-0.1 0.1-0.2v-0.5q-0.1-0.3-0.4-0.4-0.2-0.4-0.3-0.6-0.3-0.4-0.3-0.8 0.2-0.5-0.5-0.7-0.2 0-0.5 0-0.4 0-0.6 0.4 0.1 0.3 0.7 0.9v0.9q-0.4 0.4-0.6 0.5-0.3 0.1-0.6 0.3-0.3 0-0.6 0.2zm-3.3-22.7h3.7q0.4-0.4 0.5-0.5 0.2-0.3 0.5-0.6 0.8-0.7 0-1.8h-1l-0.8 0.9h-3.8q-0.3 0-0.4 0.3 0 0.2 0 0 0.4 0.6 0.7 1 0.3 0.4 0.6 0.7zm10.4-37.4h-2q-0.3 0.3-0.3 0.6 0 0.3-0.1 0.6-0.2 0.3-0.5 0.6-0.1 0.3-0.5 0.6-0.1 2.1-0.1 2.6 0.2 0.2 0.6 0.6l1.4-1.4v-0.9l1.6-1.6q0.2-0.2 0.2-0.2 0-0.2 0.1-0.3-0.1-0.3-0.3-0.6 0-0.3-0.1-0.6zm1.8 13.1l-1-1q-0.5 0.3-0.4 0.8 0.2 0.5-0.1 0.7-1.1 1-0.8 2.5 0 0.3 0.1 0.4 0.2 0 0.4 0.3 0.7-0.7 1.1-1.3 0.7-0.6 1.4-1.2 0.1-0.2 0.1-0.2 0.2 0 0.4-0.1v0.1q0.2-0.1 0.6-0.1 0.3-0.2 0.5-0.4v-1q-0.8-0.6-1.1-0.5-0.4 0-1.2 1zm-7.1-1.4v-3.7q0.3-0.3 0.4-0.5 0.4-0.1 0.5-0.4-0.7-0.6-0.9-0.6-0.2 0-0.9 0.6v2.7q-0.3 0.3-0.5 0.6-0.1 0.1-0.4 0.4v0.9q0.7 0.5 0.9 0.4 0.1 0.1 0.9-0.4zm0.4 34.9h-0.8l-1-0.9h-0.8q-0.6 0.8-0.7 0.9 0.1 0.2 0.7 1h1.8l0.8 0.9q0.5 0 0.8 0.1 0.4 0 0.6-0.7-0.3-0.3-0.7-0.7-0.3-0.2-0.7-0.6zm0.7-25.7q0.1-0.9-0.5-1.3-0.6-0.4-1-0.8l-1.4 1.3v0.9q0.3 0.3 0.6 0.6 0.5 0.3 0.8 0.6 0.7-0.4 1.5-1.3zm16.2-66.5h-14l-1.8-1.8q-0.7 0.3-0.4 0.8 0 1-0.8 1h-9q-0.5 0.5-0.9 0.8-0.3 0.3-0.6 0.6v7.5q-0.4 0.7-1.2 0.4-0.6-0.3-0.6-0.6v-11.1q0.5-0.4 0.8-0.4h25.5q0.1 0 0.1 0.1 0.2 0 0.3 0 0.9 0.9 1.2 0.9 0.3 0 1.4-1h1.8q0.1 0.3 0.3 0.4 0.2 0 0.2 0.2v5.4q-0.3 0.6-0.7 0.6-0.3-0.2-0.6 0-0.3-0.3-0.3-0.3-0.3-0.8-0.3-1.5 0.2-0.8 0-1.5-0.3-0.5-0.4-0.5zm-16.7 86.6l1.3-1.4q-0.2-0.3-0.5-0.6-0.4-0.3-0.6-0.6-0.8-0.6-1.4 0l-1.2 1.2q0.3 0.4 0.6 0.5 0.5 0 0.8 0 0.5 0.6 1 0.9zm1.8-13.1q-0.8 0-1.3 0-0.7 0-1.4 0.2-0.7 0-0.4 0.6 0.2 0 0.3 0.3h0.8q0.5 0.3 1.1 0.9h0.9q0.5-0.8 0.5-0.9 0-0.3-0.5-1.1zm-0.5-19.9v1.3q-0.2 0.4 0.4 0.8 0.1 0.3 0.6-0.2 0.4-0.6 0.9-0.9v-1q-1.1-1.1-1.9 0zm3.4-46.2l1.3-1.4-1.3-1.3q-1.1 0.7-1.4 1.5 0.9 0.9 1.4 1.2zm3.6 44.8q1.1 0 1.7-0.1 0 0 0.5-0.5-0.3-0.3-0.6-0.6-0.3-0.4-0.7-0.7-0.4 0.4-1.2 1.3-0.1 0.3 0.3 0.6zm-0.5 12.6v-1q-0.7-0.5-0.9-0.5-0.2 0-0.9 0.5v0.9q0.7 0.6 0.9 0.6 0.2 0 0.9-0.5zm-9-17.1l-1.2 1.2q0.6 0.8 1.5 0.3 0.3-0.3 0.6-0.6 0.3-0.3 0.6-0.6-0.4-0.9-1.5-0.3zm5 21.3q0.4-0.4 0.7-1 0.3 0 0.5 0.1 0.2 0 0.5-0.1 0.4 0 0.3-0.3 0.2-0.2 0-0.3-0.1-0.3-0.4-0.3h-1.8q-0.9 0.9 0.2 1.9zm9.7 10.7q-1.2-0.9-2 0 0 0 0.3 0.3l0.4 0.3q0.3 0.1 0.4 0.4 0.2 0.3 0.6 0.2 0.3-0.3 0.1-0.6 0-0.3 0.2-0.6zm-16.8-69.9v0.4q-0.3 0.5 0.3 0.8 0.1 0.1 0.6-0.3 0.6-0.6 1.1-0.9-1.1-0.9-2 0zm0 3.7q0.3 0.5 1.1 0.5 0.4 0 0.9 0 0.4 0 0.7-0.5-0.2-0.4-1.1-0.4-0.4 0-0.8 0-0.5 0-0.8 0.4zm-2.9 18.6v0.5q-0.1 0.4 0.4 0.7 0.2 0.2 0.7-0.3 0.2-0.3 0.8-0.9-0.8-0.4-0.9-0.4-0.2 0-1 0.4zm8.3 46.8v-0.3q-0.3-0.3-0.3-0.3-0.4-0.1-0.9 0-0.3 0-0.3 0.3-0.1 0.2 0 0.3 0.2 0.3 0.6 0.3 0.6 0 0.9-0.3zm8.4-5.5v-0.5q0 0-0.3-0.3h-0.9q-0.1 0.2-0.1 0.2-0.1 0.1-0.2 0.1-0.3 0.3 0 0.3 0.1 0.5 0.6 0.5 0.6 0 0.9-0.3zm-4.5 13.2v-0.5q0 0-0.3-0.3-0.4 0-0.6 0.5 0 0 0 0.4-0.3 0.4 0.3 0.8 0.6 0.3 0.6-0.9zm5.5 8.8q0.9 1.1 2 0-1.1-0.9-2 0zm-14-50.1v-0.3q-0.3-0.3-0.3-0.3h-0.9q-0.4 0-0.3 0.3-0.2 0.2 0 0.3 0.1 0.3 0.5 0.3 0.7 0 1-0.3zm-3.3 0.2h0.3q0.3 0 0.3-0.3 0.1-0.5 0-0.9 0 0-0.3-0.3h-0.3q-0.3 0.1-0.4 0.7 0.1 0.5 0.4 0.8zm3.4-3.6q0.4 0 0.4 0 0.4 0 0.3-0.3 0.4-0.3-0.3-0.6h-0.4q-0.5-0.3-0.8 0.3-0.2 0.6 0.8 0.6zm-52.2-35.4q-0.8 0-1.6 0-0.8 0-1.5 0.1 0 0-0.5 0.5l0.5 0.4q0.7-0.1 1.3 0 0.7 0 1.5-0.3 0.6 0 0.3-0.7h1.5q0.7-0.8 1.2-1.4-0.3-0.4-0.6-0.4-0.3 0-0.7 0-0.3 0.6-1 0.9-0.4 0.1-0.4 0.9zm57.8 35.4q0.7 0 0.7 0.3 0.2 0.4 0.1 0.9 0 0.4 0.2 0.9 0 0.3 0.5 0.7h0.8l2.3-2.2v-0.5q0-0.9 0.7-1 0.4-0.2 0.8 0 0.6 0 0.9-0.2 0.1 0 0.5-0.3l-0.4-0.3q-0.7-0.3-1.5-0.1-0.7 0.1-1.5-0.2-0.3-0.1-0.8-0.7-0.3 0.3-0.7 0.4-0.1 0.2-0.4 0.5-0.7 0.1-1.4 0-0.4-0.2-0.8 0.4v1.4h-1.2q-0.2 0.1-0.3 0.1-0.1 0-0.2 0.2l-0.2 0.3 0.4 0.3q1.3 0.4 1.5-0.9zm-46.5 41.5q0.2 0.3 0.6 0.6 0.3 0.3 0.5 0.6 0.5 0.3 1 0.3 0.5-0.1 0.5-0.7 0-1.4 1.4-1.2 0.5 0 0.5-0.6l-0.4-0.3q-0.2-0.2-0.4 0-0.2 0-0.4 0l-1.1-1.1q-0.6 0.8-1.2 1.4-0.5 0.4-1 1zm42.3-79.6q-0.2 0.1-0.3 0.3-0.1 0.1-0.2 0.3-0.1 0.6 0.2 0.9 0.2 0.3 0.6 0.6 0.3 0.4-0.3 0.6-0.2 0.1-0.5 0.1-0.1-0.1-0.5 0-0.7 0-0.2 0.5 0 0.3 0.2 0.3 0.7 0.1 1.8 0.1 0.8-0.6 0.7-1.2-0.2-0.6-0.2-1.3-0.4-0.3-1.3-1.2zm-61.1 33.9v2.8l-0.9 0.9q0.8 0.8 0.9 1.1v1.8l-0.7 0.7v0.3q0.9 0.9 0.8 1.2 0.1 0.3-0.8 1.4-0.2 0.3-0.2 1l0.9 0.9v3.8q-0.2 0.3-0.4 0.4-0.2 0.2-0.5 0.5 0.8 0.7 0.9 1v14.1q-0.3 0-1.2 0.3-0.9-0.9-1.3-1.2-0.2-0.3-0.4-1.9 0-1.7 0-3.9 0-2.4 0-5.1 0.2-2.9 0.4-5.3 0.2-0.4 0.7-0.7 0.5-0.5 0.9-0.9-0.3-0.5-0.9-1.1v-0.9l-0.9-0.9q0.3-0.4 0.9-1v-1.8l-0.7-0.8q-0.1-0.3-0.2-0.4 0-0.2 0-0.3 0-0.6-0.2-1.2 0-0.6 0.2-1.2 0.8-0.6 0.8-0.8 0-0.1-0.8-0.9l0.9-0.9q0-0.3 0-0.6 0-0.3 0.3-0.6 0.8-0.6 1.5 0.2zm59.3 83.4h3.3q-0.1 0.7-0.5 0.9h-0.3-18.4q-1.1-0.9-1.4-0.9-0.3 0-1.4 0.9-0.1 0-0.2-0.2l-0.6-0.6h-2q-0.3 0.2-0.9 0.8h-3.8q-0.4-0.2-0.4-0.6 0.2-0.5-0.1-0.9-0.3-0.6-0.8-0.3-0.3-0.5 0.3-0.8 0.5-0.1 1.4-0.1h20.1q0.4 0.3 1 0.9h3.8zm-10.8-48.9v-2.7q0.7-0.8 0.9-1.1l-0.6-0.6q-0.2-1.3-0.3-2.7 0-1.5 0-3.4 0-2.1 0-4.8 0.1-2.9 0.1-6.9 0.6-0.8 1.1-1.2 0.6-0.6 1.2-1.4 0.3 0.6 0.3 0.5 0.1 0.3 0.1 0.9v22.8q0 0.9-0.4 1-0.6-0.6-1.1-0.9-0.1 0.3-0.6 0.8-0.3 0-0.3 0-0.4 0-0.4-0.3zm-18.6 0v1.8q0.3 0.4 0.9 1-0.6 0.6-0.8 0.9 0.2 0.3 0.6 0.8 0.2 0.1 0.2 0.4v6.9q0 0.3-0.2 0.5-0.4 0.2-1.2 0.2l-1.3-1.3v-15q0.7-0.4 1.2-0.3 0.6 0 1.2 0 0.3 0.3 0.3 0.3v2.8zm-29.9-65v13.9q-0.3 0.3-0.6 0.6-0.3 0.3-0.6 0.6-0.6-0.3-0.6-0.4v-19.8q0-1.4 1.5-0.9 0.3 0 0.3 0.3v3.7l-0.9 0.9q0.8 0.8 0.9 1.1zm73.2 22.8q-0.3 0-0.6 0-0.2-0.2-0.3-0.2-0.4-0.3-0.4-0.6 0-0.3 0-0.6-0.4-0.3-0.5-0.4-0.1-0.4-0.5-0.7 0.7-0.7 1.4-1.3 0.8-0.7 1.3-1.7 0.1-0.8 0.5-1.1 0.6-0.3 0.3-0.7-0.1-0.3-0.8-0.2h-1.3q-0.9-1 0.1-1 0.8 0 1.5-0.7 0.8-0.1 1.4-0.3 0.6-0.1 1.2 0.6l-0.9 0.9v0.9q0.3 0.4 0.8 0.9v7.5q-0.4 0.4-0.6 0.4-0.3 0-0.7 0-0.6-0.4-1-0.8-0.4-0.5-0.9-0.9zm-45.1 61.9v-4.7l1.3-1.3q0.9-0.1 1 0.2 0.3 0.1 0.4 0.8v1.4q0.1 0.3 0.1 0.8 0.6 0.8 1.4 1.3h1.8q0.4 0.8 0.4 1 0.2 0.4-0.1 1.5-0.4 0.4-0.5 0.4h-4.5zm20.4-8.6v-10.2l1.9 1.9v0.9q0.3 0.5 0.9 1.1v7.5q-0.6 0.3-1 0.3-0.8-0.3-1.2-0.6-0.3-0.4-0.6-0.9zm-18.6-25.8v-2.6q0.6 0 0.8 0.3 0.1 0.4 0.1 0.9v6.8q-0.8 0.8-0.8 0.9 0 0.1 0.7 0.9 0.1 0.6 0.2 1.2 0.2 0.6-0.6 1.2l-2.2-2.3v-5.8q0.4-0.3 0.9-0.7 0.4-0.5 0.9-0.8zm51.3-52.4v11.5q-0.3 0.1-0.9 0.7-0.5 0.4-0.8 0.3-0.1-0.2-0.1-0.5-0.2-2.8-0.2-5.7 0.2-2.8 0-5.8 0.1-1.2 1.2-0.9 0.8 0 0.8 0.4zm-29.9 5.6v9.6q-1.8 0.4-2.8-0.2v-1q1-0.6 1-2 0.5-0.4 0.8-0.5v-0.4q-0.5-0.4-0.9-0.9-0.3-0.4-0.7-0.7 0-0.6-0.2-1l0.9-1v-1.8q0.4-0.6 1.2-0.6 0.7 0.5 0.7 0.5zm-2.4 25.6q-0.3-0.6-0.2-0.7-0.2-1.7-0.2-3.2 0.2-1.5 0.2-3.1-0.1 0 0.4-0.5 0.9 1.3 2.2 2.8v3.4q-0.2 0.4-0.7 0.4-0.3 0-0.6 0-0.6 0.7-1.1 0.9zm-7.2 56.7q-0.5 0-0.5-0.4-0.2-0.3-0.2-0.6 0-0.3-0.3-0.6-0.2-0.2-0.5 0-0.1 0-0.4 0-0.3 0.1-1.1 0.9-0.3 0-0.5 0-0.4 0-0.7-0.3-0.1-0.5 0.2-0.6 0.3-0.2 0.5-0.5 0.2 0.1 0.2-0.3 0.3-0.1 0.3-0.1h6.6q0.3 0 0.4 0.3-0.1 0.5-0.5 0.5-0.6 0.1-1.8 0.1-0.5 0.4-0.9 0.9-0.5 0.3-0.8 0.7zm6.8-65.5v-2.9q0.6-0.5 1.2-0.4 0.6 0.1 1.3 0.1 0.3 0.3 0.3 0.5v2.7q-0.6 0.7-1.1 0.6-0.7-0.2-1.4-0.3 0-0.2-0.1-0.2-0.2 0-0.2-0.1zm1.9 63.4v0.9q-0.3 0.3-0.7 0.6-0.3 0.4-0.6 0.6-0.8-0.4-1.5-1.3 0-0.8 0.1-0.9l2.3-2.3 1.3 1.4q-0.6 0.6-0.9 1zm30.8-59.7v3.8q-0.8 0.4-1 0.4-0.2 0-1-0.4v-3.8q0.8-0.4 1-0.4 0.2 0 1 0.4zm-81.2 2.9v1.8q-0.4 0.7-1 0.6-0.6-0.2-1.3-0.3-0.4-0.3-0.4-0.6 0-0.3 0-0.8 0.8-0.7 1.2-1 1.1-0.7 1.5 0.3zm0-5.7v0.4q0.2 0.4-0.1 0.9-0.8 0.3-1.4 0-0.2-0.3-0.6-0.6-0.3-0.4-0.6-0.7v-0.5q-0.3-0.4 0.4-0.7 0.4-0.5 1.1 0 0.8 0.4 1.2 1.2zm42.5 69.5l-0.5-0.1q0.2-0.9 0-1.8-0.1-0.8 0.2-1.7 0.3 0 0.6 0 0.3-0.2 0.6-0.2 0.1 0.3 0.3 0.4 0.1 0.2 0.1 0.3 0.2 0.3 0 0.5 0 0.3-0.1 0.5-0.8 0.2-0.8 1 0.2 0.7-0.4 1zm7.3-2.8q0.5 0 0.8 0.1 0.5 0 0.7-0.1 0.6 0 0.8 0.3 0.1 0.3-0.3 0.7-0.6 0.6-0.8 0.9h-1.5q-0.5 0.1-0.7-0.3-0.3-0.1 0.1-0.6 0.7-0.2 0.9-1zm1.1 18.8h-3.3q0-0.8 0.4-1.1 0.6-0.3 0.9-0.8 0.4 0 0.5 0 0.1-0.1 0.4-0.1 0.9 0.9 1.4 1.2v0.3q-0.4 0.5-0.3 0.5zm12.1-83h-0.4v-1.5q0.6-0.5 1.1-0.9 0.5-0.6 1.1-1.2 0.3 0.3 0.4 0.4 0.1 0.2 0.1 1zm-56.4 2.6q0.8 0.2 1.3 0.2 0.7-0.2 1.4 0.2 0 0.7 0.1 1.3-0.3 0-0.5 0.2-0.4 0.1-0.7 0.1-1-0.8-1.2-0.9-0.1-0.3-0.4-1.1zm43.2 54.2h-0.9q-0.5-0.8-0.5-0.9 0-0.3 0.6-1.1 0.3 0 0.6 0.2 0.5 0 0.8-0.2 0.6 0 0.7 0.4 0.2 0.2-0.2 0.7-0.4 0.3-0.7 0.4-0.1 0.2-0.4 0.5zm-51.6-63v-0.9q0.7-0.5 0.9-0.5 0.1 0 0.9 0.5v0.9q-0.8 0.6-0.9 0.6-0.2 0-0.9-0.6zm50.2 21.4v-0.9q0.8-0.4 1-0.4 0.2 0 1 0.4v0.9q-0.8 0.6-1 0.6-0.2 0-1-0.6zm12.2-19v-1.8h1.3q0.7 0.7 0.6 0.9 0.1 0.2-0.6 0.9zm-56.8 13h-0.9v-2.2q0-0.2 0.6-0.5l1.3 1.4q-0.3 0.3-0.6 0.4-0.1 0.2-0.4 0.3zm47.2 63.3q-0.1-0.1-0.3-0.1-0.1-0.2-0.3-0.3l-0.9-0.9q0.3-0.4 0.6-0.5 0.3 0.1 0.8 0l0.9 0.9q0.7 0.6 0.1 0.8-0.3 0.1-0.9 0.1zm1.4-10.8l0.3-0.3h1.8q0.6 0.2 0.4 0.6-0.3 0.4-0.3 0.3h-1.8q-0.4-0.1-0.4-0.6zm-3.5-54.4h2q0.4 0.4 0.3 0.7l-0.3 0.3h-1.8q-0.6-0.3-0.3-0.6 0-0.1 0-0.1 0.1-0.2 0.1-0.3zm-35.8 1.9h-2.1q-0.3 0-0.6-0.6 0-0.1 0.1-0.1 0.2 0 0.2-0.2 0.6 0 1 0 0.6-0.1 1.1 0.2 0.6 0.3 0.3 0.7zm-9.8 6.5q1.1 1 0 1.9-0.9-0.9 0-1.9zm48.9 55.9q0-0.6 0.6-0.9 0.3-0.1 0.6 0 0.5 0.1 0.8 0 0 0.6-0.6 0.9-0.3 0.2-0.8 0.2-0.3-0.2-0.6-0.2zm-49.3-62.4v1.8q-0.5 0.3-0.8-0.3-0.4-0.4 0-1.2 0.3-0.6 0.8-0.3zm77.4-19.9v0.4q0 0.6-0.5 0.8-0.6 0.3-0.6-0.9 0-0.3 0.2-0.3 0-0.2 0.3-0.5 0.3-0.3 0.6 0.5zm72.7 27.9v10.2q0.6 0.6 0.9 1v0.9q-0.8 0.5-0.9 0.9v1.8q0.3 0.3 0.3 0.5 0.1 0.1 0.4 0.3 0.3 0.8 0.2 1.5-0.2 0.6 0 1.3-0.6 0.6-0.9 1.1-0.2 0.4-0.2 1 0 0.5-0.9 0.3-0.6 0.1-0.7 0.5-0.3 0.1-0.5 0.3 0 0-0.3 0.1-0.9-0.8-1.2-0.9-0.3 0.1-1.3 0.9h-2.9q-0.3-0.1-0.9-0.7-0.3 0.3-0.6 0.4-0.1 0.2-0.4 0.5h-24.9q0.4 0.6 0.6 0.9 0.3 0.1 0.6 0.4v5.7q-0.3 0.3-0.8 0.6-0.3 0.3-1 0.8-0.2 0.1-0.8 0-0.4-0.2-0.9 0.1-0.6 0.3 0.2 0.8h2.7q0.6 0.3 0.6 0.6v10q-0.3 0.5-0.9 0.5h-5.1q-0.2 0.1-0.2 0.1 0 0.2-0.1 0.2-0.3 0.6 0.3 0.6 1.3 0.1 2.7 0.1 1.5 0 2.8 0 0.5 0.4 0.5 0.8v8.8q0 0-0.3 0.3-0.3 0.4-0.8 0.3-0.4-0.1-0.9 0-0.7 0.1-0.7 0.5 0 0.1 0.1 0.3 0.2 0.1 0.5 0.1h1.3q0.8 0 0.8 0.9v12.6l-1.4 1.4h-9.3q-0.3-0.2-1-0.9h-0.9l-0.9 0.9h-5.6q-0.3-0.3-0.6-0.5-0.1-0.1-0.4-0.3-0.3 0.2-0.5 0.3 0 0.2-0.3 0.3-0.3 0.3-0.9 0.3-0.4-0.1-0.9-0.1-0.6 0-0.6-0.5v-3.6l1.4-1.3q0.3 0 0.4 0 0.2-0.2 0.5-0.2 0.6-0.6 1-0.9h0.9l0.9 0.9h1.8q0.2-0.1 0.2-0.1 0.1 0 0.3-0.2 0.3-0.4 0-0.9-0.2-0.6-0.6-0.6h-0.9q-0.3 0-0.5 0-0.1-0.1-0.4-0.1l-0.6-0.6q-0.6-0.2-0.8 0.3-0.1 0.4-0.7 0.4-0.6-0.1-0.9 0.3-0.3 0.3-0.6 0.6h-0.9q-0.5-0.4-0.5-0.6 0-1-0.1-1.9 0-0.9 0.1-1.8 0.3-0.2 0.8-0.6-0.2-0.6-0.6-0.9-0.5-0.3-0.2-1.1 0.3-0.3 0.5-0.4 0.1-0.3 0.4-0.6l-0.9-0.9v-3.8q0.5-0.6 0.9-0.4 0.6 0.1 1.4 0l0.9 0.9q0.6-0.6 1-0.9 0.5-0.5 0.2-0.6-0.3-0.6-0.8-0.3-0.6 0-0.7-0.5 0.3-0.3 0.4-0.4 0.2-0.3 0.5-0.6v-0.9q-0.5-0.3-1.1-0.9v-2.9q-0.4-0.6-1-0.4-0.6 0.1-1.1 0-0.6 0-0.6-0.6-0.1-0.5-0.1-0.9 0.1-0.5 0.1-0.8 0.6-0.6 1.1-0.4 0.6 0.1 1.2 0 0.6-0.8 0.4-1.1 0-0.3-0.9-1.3 0-0.3 0-0.8 0.2-0.4 0-0.9 0-0.1-0.4-0.6-0.5 0.5-1.1 0.8-0.3-0.3-0.3-0.3v-2.9l-0.9-0.9 1.4-1.3q0.6 0.3 0.3 0.9-0.2 0.6 0.6 0.9l1.3-1.4v-0.9q-0.1-0.3-0.1-0.3-0.5-0.3-0.9-0.1-0.5 0-0.9-0.2-0.3 0-0.8-0.4 0.5-0.6 0.9-0.5 0.6 0.2 1.2 0 0.3-0.1 0.3-0.1 0.2-0.2 0.5-0.3 0.3-0.3 0.4-0.5 0.2-0.3 0.5-0.6-0.3-0.7 0.1-1 0.5-0.3 0.8-0.9 0.3-0.9-1.1-1.2h-0.4q-0.3-0.3-0.3-0.3 0.1-0.5 0.4-0.8 0.5-0.3 0.8-0.6 0.4-0.3 1.6-0.6-0.7-0.4-0.9-0.4-0.7-0.1-2.4-0.2-0.7 0.6-1.5 1.4-0.6 0.7-1.5 1.5-0.6-0.5-0.4-1.1 0.1-0.6 0-1.3 0.4-0.3 0.9-0.8 0.6-0.4 1-0.7v-2.1q0.3-0.3 0.5-0.5 0.1-0.3 0.4-0.6l-1.3-1.3h-0.9q-0.8-0.5-0.6-0.9 0.3-0.6 0-1.2 0.3-0.3 0.4-0.5 0.2-0.3 0.5-0.6 0-0.3 0-0.4 0.1-0.2 0.1-0.5-0.3-0.2-0.4-0.4-0.2-0.3-0.5-0.6v-6.5q0.3-0.3 0.5-0.4 0.1-0.3 0.4-0.6v-0.9q-0.7-0.5-0.9-0.9v-2.1q0.3 0 1.2-0.3 0.6 0.4 1.1 1h1q0.2-0.3 0.2-0.6 0.1-0.3 0.3-0.6-0.6-1-1.7-1.5l-0.6 0.6q-0.9-0.1-1.5-1.3v-7.4q0.9-1 0.9-1.3 0-0.3-0.9-1.4v-1.9q0.5-0.5 0.8-0.9 0-0.3 0-0.5 0.1-0.1 0.1-0.4-0.6-0.6-0.9-1.1v-2.7q0.6-0.6 0.9-1v-0.8q-0.3-0.4-0.9-1 0.6-0.3 0.8-0.3 0.3-0.2 1.5-0.2l0.9-0.9h0.9q0.9-0.9 1.5-1.3v-2q-0.3-0.3-0.8-0.6-0.3-0.3-0.7-0.6-0.5 0-0.6 0.5-0.2 0.4-0.9 0.6l0.9 0.9q-0.2 0.6-0.6 0.9-0.3 0.3-0.6 0.6h-2q-0.3-0.3-0.3-0.3v-1.4q-0.1-3.1-0.1-6.3 0.1-3.1 0.1-6.3 0.2-0.3 0.3-0.4 0.3-0.3 0.6-0.6v-3.8q0.5-0.4 0.8-0.4h33 5.7q0.6 0.6 1 0.9h0.9q0.3-0.2 1.1-0.9h13.8l0.1 0.1q0 0.2 0.2 0.2 0.1 3 0.1 7.5 0.2 4.5 0 7.8-0.9 0.7-1.6 1.6 0.1 0.8 0.7 0.6 0.8-0.1 1.1 0.6v3.5q-0.3 0.1-0.5 0.3-0.1 0.1-0.3 0.1h-28.9q-0.6 0-0.8 0-0.1-0.1-0.4-1.3 0-0.3-0.3-0.3 0-0.2-0.3 0.1-0.3 0.2-0.3 0.8 0.3 0.4-0.5 0.7h-0.7q-0.6 0.5-0.6 1.2-0.2 0.5-0.9 1.2v4.7q0.3 0.1 0.4 0.4 0.2 0.2 0.5 0.5v2.8q-0.3 0.2-0.5 0.5-0.1 0.1-0.4 0.4l0.9 0.9v0.9q-0.3 0.5-0.9 1.1 0 0.7 0.1 1 0.2 0.2 0.3 0.3 0.2 0.2 0.5 0.5v1.6q-0.3 0.3-0.5 0.6-0.1 0.3-0.4 0.6 0.3 0.2 0.4 0.5 0.2 0.1 0.5 0.4v2.7q0.3 0.2 0.3 0.3 0.1 0.2 0.3 0.2 7.9 0.1 15.6 0.1 7.8 0 15.7 0 0.3 0 0.6 0 0.3 0 0.6 0.2 0.5 0 0.5 0.3zm-61.5-7.5v-33.5q-0.3-0.4-0.9-1l0.6-0.6q0.1-0.2 0.1-0.2 0-0.1 0.2-0.3v-0.4-6.9q0.4-0.2 0.9-0.2 0.4-0.1 2.1-0.1 1.6-0.2 5.1-0.2 3.6 0 9.9 0h18.1 18.2q0.4 0.3 1 0.9 0.6-0.6 1.1-0.9h4.5q0.4 0.3 1 0.9 0.3-0.1 0.3-0.3 0.2-0.1 0.5-0.3 0.6-0.4 2.1-0.1 0.3 0.3 0.3 0.3 0 0 0 0.4 0 7.5 0 14.9 0 7.3 0.1 15 0 0.4-0.3 0.7-0.1 0.2-0.4 0.2h-16.2q-0.3 0-0.5-0.2-0.1-0.1-0.4-0.3 0.3-0.3 0.6-0.6 0.4-0.3 0.9-0.7h12.1q0.5-0.6 1.1-1.2 0.6-0.6 1.3-1.7 0-0.1-0.1-0.6 0-0.4 0-1v-2.4q0.6-0.6 0.9-1.1l-0.9-0.9v-17.7q-0.3-0.3-0.8-0.6-0.3-0.3-0.7-0.7h-0.2-28.5q-0.3 0.1-0.6 0.3-0.1 0.1-0.4 0.4-0.2 0-0.5 0.2-0.1 0-0.4 0-0.6-0.6-1.1-0.9h-1.6q-0.5-0.3-1.1-0.9-0.6 0.6-0.9 0.7h-9.3q-0.9-0.6-1-0.7l-0.8 0.7q-0.7 0.3-1.6 0.2-0.8-0.2-1.5 0h-3.3q-0.8 0-1.4 0-0.6-0.2-1.3 0-0.8 0-1.7 0-0.7-0.2-1.2 0-0.6 0.4-1 0.7-0.3 0.2-0.6 0.5v37.3q0.3 0.5 0.9 1.1v6.4q-0.3 0.3-0.5 0.6-0.1 0.2-0.3 0.5 0.2 0.3 0.3 0.4 0.2 0 0.3 0.3 0.2 0.3 0.2 0.8v3.7q0 0.2-0.2 0.3 0 0 0 0.2-0.4 0.3-1 0.3-0.6-0.2-1.2-0.2l-0.2-0.1q-0.1 0-0.1-0.2v-2.2-7.1q0.1-0.3 0.9-1zm18.9-28.4q-0.6 0-0.9 0.2-0.3 0.1-0.3 0.3 0 0 0.4 0.4l0.9 0.9q0.3 0 0.6 0 0.5 0 0.8-0.4-0.3-0.5-0.9-0.6-0.5-0.3-1.8 0.1h-1.4q-0.3 0.2-0.3 0.2-0.1 0.3-0.1 0.3 0 0.3 0.3 0.3 0.7 0.3 1 0 0.5-0.3 1.7-1.7zm-5.4 8.3q0.6-0.6 0.7-0.6 0.3-0.3 0.6-0.3 0.3 0 0.6-0.2 0.6-0.1-0.1-0.7l-0.9-0.9q-0.5 0-0.8 0-0.3 0-0.6 0.4 0 0.3-0.1 0.8 0 0.4 0.1 0.9 0 0.3 0.6 0.1 0.6-0.3 3.3-2.2-0.6 0-0.7 0.1-0.8 0.2 0 0.8 0.4 0.3 1 0.9 0.3 0 0.6 0 0.3 0 0.6-0.3-0.3-0.5-1-0.5-0.8-0.1-3.9 1.7zm16.2 43.8q0 0.9 0.1 1.3 0.1 0 0.5 0.5 0.7-0.5 1.2-1.2-0.5-0.5-0.5-0.5-0.3-0.1-0.7-0.1-0.3 0-0.6-0.3v-1.1q0.3-0.3 0.4-0.4 0.3-0.3 0.6-0.6-0.8-0.3-1.5-0.5l-1.5 1.5q0.3 0.8 0.2 1.4-0.2 0.4 0.4 0.9 0.6-0.6 1.4-0.9zm3.7 45.3l-0.9 0.9v11.1q-0.3 0.1-0.4 0.3 0 0.1-0.3 0.1-7.3 0.2-14.7 0.2-7.2 0-14.7 0-0.5-0.3-0.9-0.8-0.3-0.4-0.6-0.7v-3.8q0.3-0.4 0.6-0.3 0.4 0 0.7-0.1 0.3 0.3 0.3 0.3 0.3 0.6 0.2 1.2 0 0.4 0.3 1 0 0.3 0.3 0.3h11.1l0.9-0.9q0.3 0.4 0.4 0.5 0.2 0 0.3 0.3 5.3 0.1 13.4 0 0.4-0.3 0.3-0.6 0-0.3 0-0.6l1-1.1v-10.2l0.9-0.9-0.7-0.7q-0.3-0.8-0.3-1.5 0.1-0.9 0.1-1.8-0.1-0.8-0.1-1.5 0.1-0.9 0.1-1.7v-2.8q-0.1-0.8 0-1.5 0.2-0.9-0.1-1.7l-0.8-0.7q0.3-0.3 0.3-0.5 0.2-0.1 0.5-0.4-0.3-0.3-0.5-0.5-0.1-0.3-0.4-0.6 0-2.4 0-4.8 0.1-2.4 0-4.9 0-1.2 1.2-0.9 0.3 0 0.7 0.4v1.8q0.3 0.3 0.3 0.5 0.2 0.1 0.5 0.4 0.3 1.2 0.1 2.4-0.1 1.1 0 2.3-0.9 1.2-0.9 1.5 0 0.3 0.9 1.3v1.8q0.6 0.6 0.9 1.1v1.8q-0.6 0.6-0.9 1v2.7q0.6 0.6 0.9 1.1v0.9l-0.9 0.9q0.4 0.3 0.5 0.4 0.1 0 0.3 0.3 0.1 0.3-0.2 0.6-0.3 0.2-0.6 0.5v1.8q0.6 0.6 0.9 1zm-25-75.6q0-0.9 0-1.8 0-0.9-0.2-1.8-0.1-0.3-0.1-0.3-0.3-0.1-0.5 0-0.4 0.3-1.2 1.1v2.1q-0.6 0.6-0.9 0.7 0 0.3-0.1 0.6 0 0.2 0.1 0.5 0.3 0.6 0.6 0.3 0.9-0.9 1.5-0.9 0.3 0.1 0.3 0 0.2-0.3 0.5-0.5zm13 67.2v2.7q0.8 0.6 0.9 0.6 0.2 0 0.9-0.6v-2.7q-0.7-0.6-0.9-0.6-0.1 0-0.9 0.6zm-10.2-77.2l-1.3-1.4q-0.8 0.8-1.4 1.2-0.5 0.5-1.2 0.9 0.2 0.6 0.5 1.5 0.4-0.4 0.9-0.9 0.6-0.6 1-0.9 0.3 0.2 1.1 0.9zm5.1 1.2q1.2 0 2.2 0.2 1.2 0 2.4-0.2l0.3-0.3q0-0.3-0.4-0.6h-3.6q-0.3-0.3-0.6-0.4-0.2-0.2-0.5-0.5h-0.4q-0.6 0-0.8 0.3-0.1 0.3 0.3 0.8 0.4 0.3 0.5 0.4 0.3 0.2 0.6 0.3zm-3.9 19.7h-0.9q-0.3 0.3-0.6 0.7-0.3 0.3-0.6 0.6 0.1 0.2 0.1 0.3 0 0.2 0.3 0.2 0.5 0.1 0.9 0.1 0.5-0.1 0.9-0.1 0.5-0.8 0.5-0.9 0-0.2-0.6-0.9zm16.3-25.7l1.4 1.4q1 0.3 1.5-0.5-0.2-0.3-0.2-0.6 0.2-0.3-0.1-0.6-0.8-0.1-1.4-0.1-0.6-0.2-1.2 0.4zm-21.4 63.2v1.2q0.7 0.4 1 0.4 0.3 0 0.9-0.4l0.9-0.9q-0.6-0.8-1.3-0.6-0.6 0.1-1.5 0.3zm23.8-10.5h31.8q0.3-0.9 0.3-1.5 0-0.8 0-1.5 0-0.6-0.1-1.1 0-0.6 0.3-1.2 0.6-0.3 1.3-0.3 0.2-0.4 0.3-0.7 0.2-0.5 0.3-0.9l0.3-0.2q0.3 0 0.3 0.3v8.6q-0.3 0.3-0.6 0.6-0.3 0.3-0.9 0.7-0.7 0.2-1.6 0.2-0.8-0.2-1.7-0.2h-4.2-3.7-4.2-3.6-3.8-4.2-3.3q-0.6 0.5-1 0.8-0.3 0.3-0.6 0.6v1q-0.4 0.6-1.1 0.5-0.6-0.3-1 0-0.5-0.5-0.5-0.3-0.3-0.8-0.3-1.5 0-0.9 0.2-1.7 0.3-0.1 0.3-0.3 0.1-0.1 0.3-0.3 0.1-0.3 0.1-0.4 0-0.2 0.2-0.5 0-0.3 0.1-0.3 0.2-0.1 0.3-0.4zm-21.9 34.9v0.5q-0.3 0.4 0.3 0.7 0.2 0.2 0.6-0.3l0.9-0.9q-0.7-0.4-0.9-0.4-0.1 0-0.9 0.4zm16.4-29.4q0.4-0.4 0.4-1-0.1-0.5-0.1-0.9 0.1-0.5-0.3-0.8-0.6 0.5-0.6 1.2 0.2 0.3 0 0.8 0 0.4 0.6 0.7zm-5.1 29.4q-0.3-0.3-0.6-0.4-0.2-0.2-0.5-0.5-0.3-0.6-0.6-0.3-0.3 0.3-0.3 0.6 0 0.3 0 0.6 0.9 1.1 2 0zm-13.7-64.8q0.6-0.4 0.5-1 0-0.5 0-0.9 0-0.5-0.5-0.8-0.4 0.5-0.4 1.2 0 0.3 0 0.8 0 0.4 0.4 0.7zm13.1-33.4h-1.8q-0.6 0.3-0.3 0.6 0 0 0.3 0.3h1.8q0.6-0.3 0.3-0.6 0-0.3-0.3-0.3zm43.3 46.9v-9.3q-0.3-0.3-0.7-0.6-0.3-0.3-0.6-0.7h-23.3q-0.6 0.6-1 0.9h-1.8l-0.9-0.9q-0.3 0.3-0.6 0.4-0.1 0.2-0.5 0.5h-2.7q-0.9-0.9-1.5-1.4v-16.8q0.2-0.1 0.2-0.1 0.1 0 0.3-0.2 0.1 0 0.1-0.1h15.5q0.6 0 0.7 0.4 0.2 0.2-0.3 0.3-0.3 0.2-0.7 0.2-0.9 0-1.4 0.1-0.3 0.2-0.4 0.3 0 0.2-0.3 0.5-0.7 0.1-1.8 0.1-0.9-0.1-1.8-0.1-0.8 0.1-1.7 0-0.7-0.2-1.5 0.1-0.1 0.3-0.3 0.5-0.1 0-0.4 0.3-0.3-0.3-0.5-0.3-0.1-0.2-0.4-0.5h-1.8q-0.2 0.2-0.5 0.3-0.1 0-0.1 0.3v6.3l-0.8 0.8q-0.1 0.4 0.2 0.6 0.3 0.1 0.4 0.4 0.4 1.2 0.2 2.6-0.2 1.2 0.1 2.4 0.2 0 0.2 0.1 0.1 0.2 0.3 0.2h17.5q0.8-0.8 1.1-0.9 0.7-0.3 1 0.1 0.3 0.5 0.9 0.6 0.2-0.3 0.3-0.3 0.2-0.1 0.5-0.4 0.3 0.3 0.4 0.4 0.2 0 0.5 0.3h2.8q0.3-0.1 0.9-0.7 0.7 0.6 1.1 0.9h0.7q0.4-0.3 0.5-0.5 0.3-0.1 0.6-0.4 0.9 0.7 1.8 0.9 0.4 0.4 0.7 0.7 0.5 0.3 0.8 0.6-0.2 0.3-0.2 0.9-0.4 0.5-0.7 1.1 0.3 0.3 0.6 0.3 0.3 0 0.6 0 0.1 0.3 0.3 0.4 0.3 0 0.3 0.3v13.5q0 0.2-0.2 0.3 0 0 0-0.1-0.3 0.4-0.6 0.9-0.3 0.3-0.6 0.6h-1q-0.5-0.5-0.5-0.8v-3.3q0-0.3 0-0.6 0-0.4 0.3-0.7 0.3-0.3 0.6-0.2 0.3 0 0.6-0.1 0.3 0 0.3-0.3-0.1-0.3-0.1-0.3-0.9-0.3-1.4-0.3 0-0.2-0.1-0.2-0.2-0.1-0.2-0.3zm-35.8 2.4l-0.3 0.3q0 0-0.3 0.3-0.3 0.3-0.6 0.5-0.1 0.1 0 0.4 0.1 0.5 0.4 0.5 0.5-0.2 0.8-0.2 0.4-0.7 0.4-0.9 0-0.1-0.4-0.9zm-14.4-48.4h-0.5q-0.4 0.3-0.4 0.6 0.3 0.3 0.4 0.3h0.3q1.2 0 0.9-0.6-0.3-0.6-0.7-0.3zm3.3 96.1h-0.3q-0.3 0.3-0.3 0.9 0 0.5 0.3 0.6h0.4q0.3-0.3 0.3-0.7 0-0.6-0.4-0.8zm-2.4-2.5q0.9 1.2 1.8 0-0.9-0.9-1.8 0zm9 7.2h-0.3q-0.3 0.3-0.3 0.9 0 0.4 0.3 0.6h0.3q0.3-0.3 0.3-0.8 0-0.6-0.3-0.7zm-14.1-19.8q0.9-0.9 0-1.8-1.2 0.9 0 1.8zm11.1 10.3q-0.9 0.9 0 1.8 1.1-0.9 0-1.8zm-2.3 0.9h0.5l0.3-0.3q0.1-0.3-0.3-0.6 0 0-0.5 0-0.4-0.1-0.7 0.3-0.3 0.3 0 0.5 0.3 0.1 0.7 0.1zm14.9-40.9v-0.5q-0.2-0.4-0.6-0.4l-0.3 0.3v0.4q0 1.2 0.6 0.9 0.6-0.3 0.3-0.7zm-24.8-2.9q-0.9 0.9 0 1.8 1.1-0.9 0-1.8zm0.6-14.4q0.9 0.9 1.8 0-0.9-1-1.8 0zm44.7 22.4q0.9 0.9 1.8 0-0.9-1.1-1.8 0zm-36.4 10.9q-0.2 0-0.3-0.1 0-0.2-0.2-0.2h-0.9l-0.3 0.3v0.3q0.2 0.3 0.6 0.5 0.6 0 0.9-0.5 0.2 0 0.2-0.3zm-5.6-4.5q0.9 1.1 2 0-1.1-0.9-2 0zm42-55.8q-0.9-1-1.9 0 1 0.9 1.9 0zm-20.5 2.7q0.9 1.1 1.9 0-1-0.9-1.9 0zm13.9-2.2q-0.7 0-1.6 0-0.8-0.2-1.5 0 0 0-0.5 0.4l0.2 0.2q0 0.3 0.3 0.3 0.7-0.2 1.3 0 0.8 0.1 1.5-0.2 0.6-0.3 0.3-0.7h1.4q0 0 0.3-0.3 0.1 0 0.1-0.3 0-0.3-0.3-0.3-1.3-0.5-1.5 0.9zm12.2 42.3q-0.9-0.9-1.8 0 0 0.3-0.2 0.7 0 0.5 0.8 0.6 0.3-0.4 1.2-1.3zm-42.5 51.7h2.9q0.3 0 0.3-0.3 0.1-0.3-0.3-0.6-0.3-0.1-0.5 0-0.1 0-0.4 0-0.3-0.3-0.6-0.4-0.2-0.2-0.5-0.5-0.3 0.3-0.3 0.3-0.7 0.6-1 0.6-0.2 0-0.9-0.4-0.5-0.5-0.6-0.3-0.3 0.3-0.3 0.3v2.8q0 0.2 0.1 0.2l0.2 0.1q0.6-0.1 1.2 0.2 0.7 0.1 1.2-0.6-0.6-0.8-0.8-0.9 0-0.2 0.3-0.5zm42.9-44.7h-2.7q-0.1 0-0.4 0.3 0 0.5 0.4 0.6h2.7q0.3 0 0.3-0.3 0.2-0.3-0.3-0.6zm-56.8 48.5h-0.9q-0.1-0.3-0.3-0.3-0.2-0.2-0.2-0.5v-8.8q0-0.3-0.1-0.6 0-0.3 0-0.6-0.3-0.3-0.5-0.5 0-0.1-0.3-0.3 0-1.8-0.1-4 0-2.4 0-4.8 0-2.4 0-4.5 0.1-2.3 0.3-3.8 0.1-0.3 0.7-0.3 0.5 0.3 0.8-0.3 0.3-0.3-0.5-0.6h-0.4q-0.8-0.1-0.8-0.7-0.3-1.1 0.6-1.1 0.8 0 1.5-0.7 0-0.2 0.2-0.2 0.1 0 0.1 0.2 0.3 0 0.3 0.3v4.5q-0.3 0.4-0.9 1v0.9q0.8 0.8 0.9 1.1v11.1l-0.9 0.9 0.8 0.7q0.1 0.3 0.1 0.9v10.2q0 0.4-0.1 0.5 0 0-0.3 0.3zm-1.8-42h2.1q0.3 1.2 0.1 2.2 0 0.9 0 2-0.1 0.3-0.7 0.9-0.2 0.3-0.2 0.9-0.3 0.3-0.4 0.6-0.2 0.1-0.5 0.4v1.8q0 0.3-0.3 0.3-0.6 0.3-0.6-0.3-0.1-0.9-0.1-1.8 0.1-0.9 0.1-1.8 0.3-0.4 0.9-1-0.3-0.3-0.4-0.3-0.2-0.2-0.3-0.5-0.5-1.5 0-3 0-0.1 0.3-0.4zm-0.5-12.6v-5.6q0.2-0.4 1.1-0.4 0.4 0 0.6-0.2 0.1-0.3 0.4-0.6h0.3l0.3 0.3v5.6q-0.3 0.4-1 0.4-0.5 0.2-0.6 0.5-0.2 0.1-0.5 0.4-0.3 0-0.3-0.1-0.3 0-0.3-0.3zm1.8 5.7l-0.9 0.9 0.9 0.9v1.8q0.4 0.4 0.9 1v0.9q-0.6 0.6-1.2 0.6-0.6-0.1-1.2-0.3-0.1 0-0.1-0.1l-0.2-0.2v-5.5q0-0.5 0.6-0.5 0.9-0.3 1.2 0.5zm3.2 7.9h1q0.5 0.8 0.5 0.9 0 0.2-0.5 0.9h-1.3q-0.6 0-0.8-0.3-0.3-0.3 0.3-0.6 0.3-0.3 0.5-0.4 0.1-0.3 0.3-0.5zm-3.2-11.7v1.1q-0.3 0.1-0.9 0.7-0.4 0.5-0.6 0.3-0.6-0.3-0.3-0.7v-1.4q0.9-1 1.8 0z"/>
</svg>